<?xml version="1.0" ?><svg height="60" id="Nature" viewBox="0 0 60 60" width="60" xmlns="http://www.w3.org/2000/svg"><title/><path d="M47.9707,44.99219c-.90527,0-1.98633-.53711-2.86621-2.52832-.53418-1.20605-.95605-2.16016-.46-3.06055.47656-.86719,1.53711-1.17578,3.32813-1.44238a1.00019,1.00019,0,1,1,.29492,1.97852,6.57089,6.57089,0,0,0-1.832.42773,8.52089,8.52089,0,0,0,.498,1.28711c.42969.97266.832,1.40918,1.18652,1.3125a1.14435,1.14435,0,0,0,.80371-.98242c.00684-.03125.05664-.18945.15039-.44824,1.67188-4.59668,2.13965-7.168,2.207-8.57129L50.29,31.97363a15.69222,15.69222,0,0,0-5.88379.10352.98442.98442,0,0,1-.80566-.22656,1.00006,1.00006,0,0,1-.35059-.76074A5.212,5.212,0,0,0,41.22363,28.126a1.00318,1.00318,0,0,1-.4834-.834,44.17794,44.17794,0,0,0-.29492-4.709,1.00033,1.00033,0,0,1,1.98242-.26953,43.01049,43.01049,0,0,1,.2998,4.42871,7.75762,7.75762,0,0,1,2.2998,3.22461,14.43775,14.43775,0,0,1,6.11133.1748,1.007,1.007,0,0,1,.38867.24121l1.46973,1.46973a1.00149,1.00149,0,0,1,.293.70117c.01172,2.11816-.77344,5.37012-2.33594,9.666l-.09668.26855a3.05158,3.05158,0,0,1-2.21191,2.4082A2.53043,2.53043,0,0,1,47.9707,44.99219Z" style="fill:#6e6d9e"/><path d="M40.13672,38.51563c-.88672,0-1.38184-.77051-1.71875-1.29395a2.77523,2.77523,0,0,0-1.084-1.14746,1.00027,1.00027,0,1,1,.8125-1.82812,4.52588,4.52588,0,0,1,1.9541,1.89453c.042.06543.09082.14063.13867.21191,1.88477-.99609,5.916-2.626,7.68066-2.75h.00879c.52441,0,1.57324.22168,1.66113,2.18555a1,1,0,0,1-1.998.08984c-.00391-.084-.00977-.15625-.0166-.21777a31.64449,31.64449,0,0,0-6.834,2.70313.998.998,0,0,1-.3877.1377A1.68445,1.68445,0,0,1,40.13672,38.51563Z" style="fill:#6e6d9e"/><path d="M21.30176,58.0166a18.35591,18.35591,0,0,1-2.68164-.22852,1,1,0,0,1,.29883-1.97754,12.31014,12.31014,0,0,0,3.77832.07813,7.698,7.698,0,0,0-1.25684-2.12207c-2.13184-.98633-3.06543-2.68164-4.34277-5.00488l-.35156-.63672A.99833.99833,0,0,1,17.25,46.71094c1.8291-.72949,4.19043-2.47363,5.05078-6.64355a.99989.99989,0,0,1,1.35938-.72266c1.8252.749,6.60547.43262,10.23242-1.78711a1.00022,1.00022,0,0,1,1.043,1.707,16.84154,16.84154,0,0,1-10.93066,2.25293,10.38658,10.38658,0,0,1-4.99512,6.57129c1.14746,2.082,1.84375,3.252,3.4043,3.92188a.99346.99346,0,0,1,.291.19043c.458.43164,2.49609,3.0752,1.94824,4.498C24.25684,57.70215,22.877,58.0166,21.30176,58.0166Z" style="fill:#6e6d9e"/><path d="M16.87988,55.30176a2.00236,2.00236,0,0,1-.63672-.10156c-1.24023-.41016-1.7334-1.8418-2.25586-3.3584-.46-1.332-.98047-2.84277-1.94531-3.47559a.99957.99957,0,0,1-.05176-1.63574c2.28027-1.71094,1.97461-2.26758,1.06641-3.9209a9.57709,9.57709,0,0,1-1.4668-4.665,1.0003,1.0003,0,0,1,2-.04883,7.674,7.674,0,0,0,1.21875,3.751c1.07813,1.96191,1.66113,3.56738-.69629,5.72461a11.298,11.298,0,0,1,1.76563,3.61914c.24219.70313.69336,2.01172.99316,2.11133.02539.00977.22949-.01074.63477-.28711A.99978.99978,0,1,1,18.63477,54.665,3.154,3.154,0,0,1,16.87988,55.30176Z" style="fill:#6e6d9e"/><path d="M13.62988,34.50977a.98616.98616,0,0,1-.41016-.08984.96788.96788,0,0,1-.51953-.5498.97858.97858,0,0,1,.01953-.77051,9.69871,9.69871,0,0,1,3.12988-3.96973,12.63243,12.63243,0,0,1,3.25-1.67969,1.02666,1.02666,0,0,1,1.28027.59961.98087.98087,0,0,1-.04.76953.97076.97076,0,0,1-.55957.51074A10.76044,10.76044,0,0,0,17.04,30.72949a7.78879,7.78879,0,0,0-2.5,3.19043A.99791.99791,0,0,1,13.62988,34.50977Zm9.62988-6.30957a.99022.99022,0,0,1-.96-.7002,1.02976,1.02976,0,0,1,.07031-.77051.99368.99368,0,0,1,.58984-.48926,1.01818,1.01818,0,0,1,1.25.65918.98545.98545,0,0,1-.07031.77051.94676.94676,0,0,1-.58984.47949A.71045.71045,0,0,1,23.25977,28.2002ZM26.96,26.71A.99692.99692,0,0,1,26,25.42969a1.03032,1.03032,0,0,1,.47949-.59961,11.09877,11.09877,0,0,0,2.40039-1.74023,39.00247,39.00247,0,0,1,2.15039-5.99023l.00977-.00977a1.02331,1.02331,0,0,1,1.31934-.48047.98887.98887,0,0,1,.52051.56055,1.02185,1.02185,0,0,1-.03027.76953A35.46971,35.46971,0,0,0,30.75,23.87012a1.20787,1.20787,0,0,1-.25977.44922,13.516,13.516,0,0,1-3.05078,2.27051A1.00081,1.00081,0,0,1,26.96,26.71Z" style="fill:#6e6d9e"/><path d="M48.74121,21.59668a3.32186,3.32186,0,0,1-1.20215-.22363A19.49828,19.49828,0,0,1,44.127,19.5791a7.92427,7.92427,0,0,1-3.54-.37988.99964.99964,0,0,1,.627-1.89844,6.025,6.025,0,0,0,2.78223.28125l.333-.0293a.96034.96034,0,0,1,.65625.18652,17.16467,17.16467,0,0,0,3.2793,1.76953,1.77107,1.77107,0,0,0,2.01953-.8457,1.33361,1.33361,0,0,0-.001-1.67578,17.47653,17.47653,0,0,1-3.36426-4.99414,9.8946,9.8946,0,0,0-.74121-1.28809,17.40227,17.40227,0,0,0-2.2998-2.7627c-.55469-.54785-.98145-.92285-1.19044-1.10645l-.13378-.11914a4.9728,4.9728,0,0,1-.78418-1.12891,12.42521,12.42521,0,0,0-.91992-1.39648A4.08476,4.08476,0,0,0,40.55469,6.25a1.00009,1.00009,0,0,1-1.99023.19922,4.99589,4.99589,0,0,1,1.1416-4.02832,1.56973,1.56973,0,0,1,1.43066-.38281c.92773.23047,1.58691,1.2373,2.35352,2.53027.15234.25684.36035.60742.43848.69824l.08008.06836c.22363.19629.68066.59863,1.24316,1.15332a19.63143,19.63143,0,0,1,2.59473,3.11426,11.77443,11.77443,0,0,1,.87793,1.53125,15.62489,15.62489,0,0,0,2.99316,4.46,3.23826,3.23826,0,0,1,.23438,4.17285A3.90729,3.90729,0,0,1,48.74121,21.59668Z" style="fill:#6e6d9e"/><path d="M23.28027,41.26953a1.00009,1.00009,0,0,1-.94922-1.31445,7.03724,7.03724,0,0,0,.34473-3.77832,1.00012,1.00012,0,0,1,1.96875-.35352,9.08377,9.08377,0,0,1-.415,4.76074A.99939.99939,0,0,1,23.28027,41.26953Z" style="fill:#6e6d9e"/><path d="M37.73926,36.16016a.9924.9924,0,0,1-.49023-.12891,2.65439,2.65439,0,0,0-1.75586-.27637,1,1,0,1,1-.52539-1.92969,4.57064,4.57064,0,0,1,3.26367.46387,1,1,0,0,1-.49219,1.87109Z" style="fill:#6e6d9e"/><path d="M40.89941,19.25a1.00234,1.00234,0,0,1-.458-.11133c-1-.5166-2.6084-2.27148-1.542-5.21973a1.00028,1.00028,0,0,1,1.88086.68164c-.74219,2.05078.52441,2.73242.5791,2.76074a1.00006,1.00006,0,0,1-.46,1.88867Z" style="fill:#6e6d9e"/><path d="M45.17969,13.71a1.0005,1.0005,0,0,1-.90039-.56445,2.4698,2.4698,0,0,0-.67969-.33105,1.00042,1.00042,0,0,1,.59863-1.90918,2.99691,2.99691,0,0,1,1.91895,1.45605.99968.99968,0,0,1-.9375,1.34863Zm-.87793-.54395h0Zm-.05957-.10742.001.001Z" style="fill:#6e6d9e"/><path d="M41.73926,28.26953a.99476.99476,0,0,1-.63379-.22754,6.1392,6.1392,0,0,0-3.93457-1.28418,1.00993,1.00993,0,0,1-1.05859-.9375.99986.99986,0,0,1,.9375-1.05859,8.00773,8.00773,0,0,1,5.3252,1.73535,1,1,0,0,1-.63574,1.77246Z" style="fill:#6e6d9e"/><path d="M6.28027,53.29a.999.999,0,0,1-.94043-1.33887,11.956,11.956,0,0,0,.38965-5.458,19.60872,19.60872,0,0,1,.25586-6.44629c.8291-3.6709,3.26172-6.20312,7.22852-7.52539a.99964.99964,0,0,1,.63281,1.89648,8.22359,8.22359,0,0,0-5.91113,6.07227,17.67,17.67,0,0,0-.21289,5.835,19.19436,19.19436,0,0,1,.05273,3.94629c1.38281-1.56641,1.83105-4.51172,2.23828-7.18848l1,.07324.98828.15039c-.61719,4.06543-1.37207,9.0293-5.502,9.959A.99044.99044,0,0,1,6.28027,53.29Z" style="fill:#6e6d9e"/><path d="M26.7998,23.24023a1.00054,1.00054,0,0,1-.957-1.28906l.12109-.40234c1.2627-4.2041,2.99121-9.96,9.626-11.03613a1.00021,1.00021,0,1,1,.32031,1.97461c-5.39941.875-6.79785,5.53027-8.03125,9.63672l-.12207.40527A.99917.99917,0,0,1,26.7998,23.24023Z" style="fill:#6e6d9e"/><path d="M49.8252,8.5752a1,1,0,0,1-.67969-1.7334c.5459-.50684,1.17676-1.08887,1.832-1.68848a58.10194,58.10194,0,0,0-5.78418,2.83691A1.00016,1.00016,0,1,1,44.207,6.25c.74316-.42187,7.35938-4.125,10.60352-4.21973a1.00035,1.00035,0,0,1,.68555,1.75488c-1.50586,1.30957-3.54492,3.18262-4.99121,4.52344A.99529.99529,0,0,1,49.8252,8.5752Z" style="fill:#6e6d9e"/><path d="M22.73926,24.58008a1.00053,1.00053,0,0,1-.95215-1.30469c.2666-.833.49414-1.71387.73633-2.64746.73145-2.82812,1.56152-6.0332,3.76953-8.59082a12.54323,12.54323,0,0,1,10.77246-4.502.99976.99976,0,0,1-.14648,1.99414,10.59785,10.59785,0,0,0-9.11133,3.81348c-1.90332,2.20508-2.6377,5.042-3.34863,7.78711-.249.96094-.4834,1.86816-.76758,2.75488A.99936.99936,0,0,1,22.73926,24.58008Z" style="fill:#6e6d9e"/><path d="M18.87891,25.32422a.99935.99935,0,0,1-.97266-1.2373c.17188-.7041.332-1.43359.49512-2.17969C19.44922,17.11328,20.6377,11.68066,25.958,7.457,32.0918,2.59082,39.50977,5.30762,39.82324,5.4248a1.00023,1.00023,0,0,1-.70508,1.87207c-.06543-.02539-6.68652-2.42187-11.917,1.72656C22.43945,12.80371,21.332,17.86719,20.35449,22.335c-.166.7627-.3291,1.50781-.50488,2.22656A1.0006,1.0006,0,0,1,18.87891,25.32422Z" style="fill:#6e6d9e"/></svg>